HIERARCHY
ROOT Hips
{
	OFFSET 0.00000 0.00000 0.00000
	CHANNELS 6 Xposition Yposition Zposition Zrotation Yrotation Xrotation 
	JOINT LHipJoint
	{
		OFFSET 0 0 0
		CHANNELS 3 Zrotation Yrotation Xrotation
		JOINT LeftUpLeg
		{
			OFFSET 1.58895 -1.83665 0.71753
			CHANNELS 3 Zrotation Yrotation Xrotation
			JOINT LeftLeg
			{
				OFFSET 2.50528 -6.88321 0.00000
				CHANNELS 3 Zrotation Yrotation Xrotation
				JOINT LeftFoot
				{
					OFFSET 2.63244 -7.23257 0.00000
					CHANNELS 3 Zrotation Yrotation Xrotation
					JOINT LeftToeBase
					{
						OFFSET 0.23691 -0.65090 1.72750
						CHANNELS 3 Zrotation Yrotation Xrotation
						End Site
						{
							OFFSET 0.00000 -0.00000 0.92561
						}
					}
				}
			}
		}
	}
	JOINT RHipJoint
	{
		OFFSET 0 0 0
		CHANNELS 3 Zrotation Yrotation Xrotation
		JOINT RightUpLeg
		{
			OFFSET -1.51435 -1.83665 0.71753
			CHANNELS 3 Zrotation Yrotation Xrotation
			JOINT RightLeg
			{
				OFFSET -2.54551 -6.99375 0.00000
				CHANNELS 3 Zrotation Yrotation Xrotation
				JOINT RightFoot
				{
					OFFSET -2.66027 -7.30903 0.00000
					CHANNELS 3 Zrotation Yrotation Xrotation
					JOINT RightToeBase
					{
						OFFSET -0.22981 -0.63138 2.03959
						CHANNELS 3 Zrotation Yrotation Xrotation
						End Site
						{
							OFFSET -0.00000 -0.00000 1.07060
						}
					}
				}
			}
		}
	}
	JOINT LowerBack
	{
		OFFSET 0 0 0
		CHANNELS 3 Zrotation Yrotation Xrotation
		JOINT Spine
		{
			OFFSET -0.02651 1.86275 -0.11152
			CHANNELS 3 Zrotation Yrotation Xrotation
			JOINT Spine1
			{
				OFFSET 0.01019 1.86224 0.04087
				CHANNELS 3 Zrotation Yrotation Xrotation
				JOINT Neck
				{
					OFFSET 0 0 0
					CHANNELS 3 Zrotation Yrotation Xrotation
					JOINT Neck1
					{
						OFFSET -0.01926 1.80512 0.08867
						CHANNELS 3 Zrotation Yrotation Xrotation
						JOINT Head
						{
							OFFSET 0.05516 1.76451 -0.38475
							CHANNELS 3 Zrotation Yrotation Xrotation
							End Site
							{
								OFFSET 0.01592 1.82587 -0.14001
							}
						}
					}
				}
				JOINT LeftShoulder
				{
					OFFSET 0 0 0
					CHANNELS 3 Zrotation Yrotation Xrotation
					JOINT LeftArm
					{
						OFFSET 3.47116 1.51376 0.14491
						CHANNELS 3 Zrotation Yrotation Xrotation
						JOINT LeftForeArm
						{
							OFFSET 4.78095 -0.00000 0.00000
							CHANNELS 3 Zrotation Yrotation Xrotation
							JOINT LeftHand
							{
								OFFSET 3.58615 -0.00000 -0.00000
								CHANNELS 3 Zrotation Yrotation Xrotation
								JOINT LeftFingerBase
								{
									OFFSET 0 0 0
									CHANNELS 3 Zrotation Yrotation Xrotation
									JOINT LeftHandIndex1
									{
										OFFSET 0.65981 -0.00000 0.00000
										CHANNELS 3 Zrotation Yrotation Xrotation
										End Site
										{
											OFFSET 0.53196 -0.00000 0.00000
										}
									}
								}
								JOINT LThumb
								{
									OFFSET 0 0 0
									CHANNELS 3 Zrotation Yrotation Xrotation
									End Site
									{
										OFFSET 0.54008 -0.00000 0.54008
									}
								}
							}
						}
					}
				}
				JOINT RightShoulder
				{
					OFFSET 0 0 0
					CHANNELS 3 Zrotation Yrotation Xrotation
					JOINT RightArm
					{
						OFFSET -3.31725 1.61216 0.35156
						CHANNELS 3 Zrotation Yrotation Xrotation
						JOINT RightForeArm
						{
							OFFSET -4.48913 -0.00000 0.00000
							CHANNELS 3 Zrotation Yrotation Xrotation
							JOINT RightHand
							{
								OFFSET -3.70510 -0.00000 0.00000
								CHANNELS 3 Zrotation Yrotation Xrotation
								JOINT RightFingerBase
								{
									OFFSET 0 0 0
									CHANNELS 3 Zrotation Yrotation Xrotation
									JOINT RightHandIndex1
									{
										OFFSET -0.44914 -0.00000 0.00000
										CHANNELS 3 Zrotation Yrotation Xrotation
										End Site
										{
											OFFSET -0.36211 -0.00000 0.00000
										}
									}
								}
								JOINT RThumb
								{
									OFFSET 0 0 0
									CHANNELS 3 Zrotation Yrotation Xrotation
									End Site
									{
										OFFSET -0.36763 -0.00000 0.36763
									}
								}
							}
						}
					}
				}
			}
		}
	}
}
MOTION
Frames: 6
Frame Time: .0083333
-0.8168 18.6531 6.1245 0 0 0 0 0 0 -21 0 0 0 0 0 0 0 0 0 0 0 0 0 0 21 0 0 0 0 0 0 0 0 0 0 0 0 0 0 0 0 0 0 0 0 0 0 -16 0 0 21 0 0 11 0 0 0 -8 0 0 0 0 0 0 0 0 0 0 0 0 0 0 0 0 0 0 0 0 8 0 0 0 0 0 0 0 0 0 0 0 0 0 0 0 0 0
-0.8168 18.6531 6.1245 -1.2365 1.1563 1.2255 0.0000 0.0000 0.0000 -12.6993 -9.8684 -0.2766 1.2002 6.9509 19.5701 1.4294 1.5888 -23.2147 8.4927 -16.4700 -54.3187 0.0000 0.0000 0.0000 15.8049 0.3191 10.0041 0.0000 -0.0000 0.0000 -1.4536 -5.5927 -25.3971 -0.0050 0.4582 -1.2591 -1.0640 -0.0138 0.9029 0.0330 -0.0374 -1.3650 0.6310 -0.0031 -1.9036 -3.5067 -3.7049 -10.9137 5.1633 -5.6462 21.5556 1.7191 -2.4242 8.7708 -0.0000 0.0000 0.0000 -92.5241 10.9325 29.4795 21.3765 -32.2651 -6.2497 -0.0000 -0.0000 10.7225 2.0927 -23.6946 -0.8413 -7.1250 0.0000 -0.0000 -16.6789 7.0686 15.1740 -0.0000 0.0000 0.0000 89.9144 -13.8868 31.7811 -22.2998 33.3142 -6.7498 0.0000 0.0000 22.8870 -6.6021 -31.6254 3.4730 7.1250 -0.0000 -0.0000 28.6691 -59.4081 -10.6228
-0.8168 18.6530 6.1243 -1.2558 1.1623 1.2288 0.0000 0.0000 0.0000 -12.6763 -9.8724 -0.2821 1.2006 6.9522 19.5737 1.4277 1.6059 -23.2084 8.4980 -16.4736 -54.3371 0.0000 0.0000 0.0000 15.8278 0.3145 9.9990 0.0000 0.0000 -0.0000 -1.4562 -5.5875 -25.4133 -0.0064 0.5150 -1.4152 -1.0462 -0.0286 0.9052 0.0555 -0.0563 -1.3524 0.6446 -0.0127 -1.8916 -3.4694 -3.6734 -10.9794 5.0809 -5.5905 21.5861 1.6903 -2.4018 8.7871 -0.0000 -0.0000 0.0000 -92.5244 10.9048 29.4981 21.3630 -32.2496 -6.2425 -0.0000 -0.0000 10.6654 2.1392 -23.6634 -0.8589 -7.1250 0.0000 -0.0000 -16.6519 7.0955 15.1380 -0.0000 -0.0000 0.0000 89.8816 -13.8032 31.8058 -22.2950 33.3088 -6.7471 0.0000 0.0000 22.8498 -6.6098 -31.7917 3.4934 7.1250 -0.0000 -0.0000 28.8099 -59.5539 -10.7824
-0.8164 18.6535 6.1240 -1.2545 1.1670 1.2390 0.0000 0.0000 0.0000 -12.6786 -9.8860 -0.2857 1.1998 6.9499 19.5671 1.4293 1.6093 -23.2228 8.5078 -16.4804 -54.3719 0.0000 0.0000 0.0000 15.8247 0.3134 9.9866 0.0000 -0.0000 0.0000 -1.4582 -5.5720 -25.4196 -0.0069 0.5359 -1.4727 -1.0407 -0.0359 0.9078 0.0607 -0.0659 -1.3594 0.6471 -0.0175 -1.9001 -3.3856 -3.6477 -10.9668 4.9733 -5.5467 21.5791 1.6450 -2.3856 8.7745 -0.0000 -0.0000 0.0000 -92.5125 10.9164 29.4978 21.3588 -32.2448 -6.2403 -0.0000 -0.0000 10.6797 2.1160 -23.6313 -0.8485 -7.1250 0.0000 -0.0000 -16.6666 7.1277 15.1418 -0.0000 -0.0000 0.0000 89.8850 -13.7905 31.7795 -22.3239 33.3411 -6.7630 0.0000 0.0000 22.8297 -6.6445 -31.9254 3.5251 7.1250 -0.0000 -0.0000 28.8956 -59.6775 -10.9044
-0.8162 18.6537 6.1234 -1.2351 1.1710 1.2445 0.0000 0.0000 0.0000 -12.6992 -9.8930 -0.2898 1.1990 6.9476 19.5602 1.4305 1.5820 -23.2210 8.5020 -16.4764 -54.3514 0.0000 0.0000 0.0000 15.8021 0.3103 9.9816 0.0000 -0.0000 0.0000 -1.4594 -5.5457 -25.4133 -0.0050 0.4564 -1.2540 -1.0396 -0.0382 0.9367 0.0448 -0.0697 -1.3808 0.6303 -0.0192 -1.9382 -3.3031 -3.6225 -10.9407 4.9120 -5.5150 21.5899 1.6145 -2.3706 8.7676 -0.0000 -0.0000 0.0000 -92.4743 10.9705 29.4879 21.3777 -32.2666 -6.2504 -0.0000 -0.0000 10.7408 2.0782 -23.6586 -0.8343 -7.1250 0.0000 -0.0000 -16.6886 7.1041 15.1717 -0.0000 -0.0000 0.0000 89.9156 -13.8086 31.7135 -22.3382 33.3572 -6.7709 0.0000 0.0000 22.9300 -6.6446 -31.9134 3.5239 7.1250 -0.0000 -0.0000 28.8846 -59.6671 -10.8926
-0.8163 18.6537 6.1229 -1.2143 1.1669 1.2487 0.0000 0.0000 0.0000 -12.7166 -9.8728 -0.2996 1.1975 6.9435 19.5480 1.4257 1.5690 -23.1777 8.5065 -16.4795 -54.3673 0.0000 0.0000 0.0000 15.7794 0.3152 9.9784 0.0000 0.0000 -0.0000 -1.4576 -5.5396 -25.3963 -0.0038 0.4004 -1.1002 -1.0404 -0.0385 0.9647 0.0394 -0.0705 -1.3868 0.6252 -0.0196 -1.9602 -3.2975 -3.5977 -10.9943 4.8935 -5.4790 21.6489 1.6106 -2.3534 8.7953 0.0000 0.0000 0.0000 -92.4606 10.9987 29.4883 21.4077 -32.3012 -6.2664 -0.0000 -0.0000 10.7577 2.1064 -23.7055 -0.8472 -7.1250 0.0000 -0.0000 -16.6704 7.0573 15.1694 0.0000 0.0000 0.0000 89.9329 -13.7936 31.6376 -22.3376 33.3564 -6.7705 0.0000 0.0000 23.0391 -6.6004 -31.7842 3.4877 7.1250 -0.0000 -0.0000 28.8126 -59.5452 -10.7775
